<svg width="244.43136" height="247.2" viewBox="0 0 244.43136 247.2" xmlns="http://www.w3.org/2000/svg"
  xmlns:xlink="http://www.w3.org/1999/xlink">
  <g transform="translate(0 99.80432009)">
    <svg width="244.43136" height="47.59135983" viewBox="3.79999995 -35.25 183.08999634 35.65000153">
      <path id="text-0" fill="currentColor"
        d="M27.45-10.8 33.35 0h-7L20.3-11.25q-.85-1.6-2.1-2.25-1.25-.65-3.15-.65h-4.9V0H3.8v-35.25h15.6q6 0 9.13 2.67 3.12 2.68 3.12 7.73 0 4.05-2.27 6.67-2.28 2.63-6.43 3.43 2.8.75 4.5 3.95Zm-8.95-8.3q3.65 0 5.35-1.38 1.7-1.37 1.7-4.22 0-2.9-1.7-4.23-1.7-1.32-5.35-1.32h-8.4v11.15h8.4Zm43.7 8.3L68.1 0h-7l-6.05-11.25q-.85-1.6-2.1-2.25-1.25-.65-3.15-.65h-4.9V0h-6.35v-35.25h15.6q6 0 9.12 2.67 3.13 2.68 3.13 7.73 0 4.05-2.28 6.67-2.27 2.63-6.42 3.43 2.8.75 4.5 3.95Zm-8.95-8.3q3.65 0 5.35-1.38 1.7-1.37 1.7-4.22 0-2.9-1.7-4.23-1.7-1.32-5.35-1.32h-8.4v11.15h8.4ZM101.59 0h-6.45v-29.95h-11.5v-5.3h29.45v5.3h-11.5V0Zm32.9-12.85v1.75h-16.65q.3 3.4 2.05 5.05 1.75 1.65 5 1.65 4.05 0 7.4-2.6l1.8 4.3q-1.7 1.4-4.28 2.25-2.57.85-5.17.85-6 0-9.47-3.4-3.48-3.4-3.48-9.3 0-3.75 1.5-6.65 1.5-2.9 4.23-4.5 2.72-1.6 6.17-1.6 5.05 0 7.97 3.25 2.93 3.25 2.93 8.95Zm-10.75-7.8q-2.5 0-4.02 1.6-1.53 1.6-1.88 4.6h11.3q-.1-3.05-1.5-4.62-1.4-1.58-3.9-1.58Zm27 21.05q-3.85 0-6.68-1.55-2.82-1.55-4.32-4.4-1.5-2.85-1.5-6.65 0-3.8 1.57-6.73 1.58-2.92 4.48-4.52 2.9-1.6 6.7-1.6 2.6 0 5.07.82 2.48.83 3.98 2.23l-1.8 4.4q-1.55-1.25-3.28-1.9-1.72-.65-3.42-.65-3.25 0-5.05 2.02-1.8 2.03-1.8 5.83 0 3.75 1.8 5.77 1.8 2.03 5.05 2.03 1.7 0 3.42-.65 1.73-.65 3.28-1.9l1.8 4.35q-1.6 1.45-4.1 2.27-2.5.83-5.2.83Zm27.45-25.45q4.4 0 6.55 2.5 2.15 2.5 2.15 7.55V0h-6.25v-14.65q0-2.85-1.08-4.15-1.07-1.3-3.37-1.3-2.7 0-4.33 1.7-1.62 1.7-1.62 4.55V0h-6.25v-35.25h6.25v14.2q1.25-1.95 3.32-2.98 2.08-1.02 4.63-1.02Z" />
    </svg>
  </g>
  <path fill="currentColor"
    d="M0 93.804V1h244.431v92.804h-4.291V5.292H4.292v88.512H0m0 59.592V246.2h244.431v-92.804h-4.291v88.512H4.292v-88.512H0" />
</svg>