<svg xmlns="http://www.w3.org/2000/svg" xmlns:xlink="http://www.w3.org/1999/xlink" viewBox="0 0 2133.3333 2400">
    <defs>
        <path id="a" d="M0 1800h1600V0H0Z" />
        <path id="b"
            d="M476.196 989.771c0-12.956-.016-24.75 0-38.266.083-5.114 0-8.933 0-13.615V544.108c0-28.654 25.285-51.882 56.474-51.882l213.624-43.671c9.353-9.521 22.888-15.508 37.948-15.508h75.935c15.075 0 28.622 6 37.976 15.538l213.477 43.641c31.19 0 56.475 23.228 56.475 51.882V937.89c0 4.682-.116 7.588 0 13.433.281 13.242 0 25.492 0 38.448 0 198.523-154.889 359.459-345.955 359.459-191.066 0-345.954-160.936-345.954-359.459" />
        <clipPath id="f" clipPathUnits="userSpaceOnUse">
            <use xlink:href="#a" />
        </clipPath>
        <clipPath id="h" clipPathUnits="userSpaceOnUse">
            <use xlink:href="#a" />
        </clipPath>
        <clipPath id="j" clipPathUnits="userSpaceOnUse">
            <use xlink:href="#a" />
        </clipPath>
        <clipPath id="l" clipPathUnits="userSpaceOnUse">
            <use xlink:href="#a" />
        </clipPath>
        <clipPath id="n" clipPathUnits="userSpaceOnUse">
            <use xlink:href="#b" />
        </clipPath>
        <clipPath id="p" clipPathUnits="userSpaceOnUse">
            <use xlink:href="#b" />
        </clipPath>
        <clipPath id="r" clipPathUnits="userSpaceOnUse">
            <use xlink:href="#b" />
        </clipPath>
        <clipPath id="s" clipPathUnits="userSpaceOnUse">
            <use xlink:href="#a" />
        </clipPath>
        <clipPath id="u" clipPathUnits="userSpaceOnUse">
            <use xlink:href="#a" />
        </clipPath>
        <clipPath id="w" clipPathUnits="userSpaceOnUse">
            <use xlink:href="#a" />
        </clipPath>
        <clipPath id="y" clipPathUnits="userSpaceOnUse">
            <use xlink:href="#a" />
        </clipPath>
        <clipPath id="A" clipPathUnits="userSpaceOnUse">
            <use xlink:href="#a" />
        </clipPath>
        <clipPath id="C" clipPathUnits="userSpaceOnUse">
            <use xlink:href="#a" />
        </clipPath>
        <clipPath id="E" clipPathUnits="userSpaceOnUse">
            <use xlink:href="#a" />
        </clipPath>
        <clipPath id="G" clipPathUnits="userSpaceOnUse">
            <use xlink:href="#a" />
        </clipPath>
        <clipPath id="I" clipPathUnits="userSpaceOnUse">
            <use xlink:href="#a" />
        </clipPath>
        <clipPath id="K" clipPathUnits="userSpaceOnUse">
            <use xlink:href="#a" />
        </clipPath>
        <clipPath id="M" clipPathUnits="userSpaceOnUse">
            <use xlink:href="#a" />
        </clipPath>
        <clipPath id="O" clipPathUnits="userSpaceOnUse">
            <use xlink:href="#a" />
        </clipPath>
        <clipPath id="Q" clipPathUnits="userSpaceOnUse">
            <use xlink:href="#a" />
        </clipPath>
        <clipPath id="S" clipPathUnits="userSpaceOnUse">
            <use xlink:href="#a" />
        </clipPath>
        <g>
            <linearGradient id="e" x1="0" x2="1" y1="0" y2="0"
                gradientTransform="matrix(43.791016 0 0 -43.791016 1168.2302 1068.4043)" gradientUnits="userSpaceOnUse"
                spreadMethod="pad">
                <stop offset="0" stop-color="#1f1e24" />
                <stop offset=".157533" stop-color="#4a5f67" />
                <stop offset=".19437843" stop-color="#4a5f67" />
                <stop offset=".360731" stop-color="#6fb4ca" />
                <stop offset=".36207411" stop-color="#6fb4ca" />
                <stop offset=".709131" stop-color="#e6e6e6" />
                <stop offset=".87646786" stop-color="#395059" />
                <stop offset=".92694" stop-color="#395059" />
                <stop offset=".98532133" stop-color="#395059" />
                <stop offset="1" stop-color="#395059" />
            </linearGradient>
            <linearGradient id="g" x1="0" x2="1" y1="0" y2="0"
                gradientTransform="matrix(55.955185 0 0 -55.955185 1168.2302 1048.8295)" gradientUnits="userSpaceOnUse"
                spreadMethod="pad">
                <stop offset="0" stop-color="#5e8592" />
                <stop offset=".2902289" stop-color="#1f1e24" />
                <stop offset=".514155" stop-color="#1f1e24" />
                <stop offset=".5154277" stop-color="#1f1e24" />
                <stop offset=".844292" stop-color="#e6e6e6" />
                <stop offset=".87693526" stop-color="#1f1e24" />
                <stop offset="1" stop-color="#1f1e24" />
            </linearGradient>
            <linearGradient id="i" x1="0" x2="1" y1="0" y2="0"
                gradientTransform="matrix(42.937931 0 0 39.929329 434.948 1068.4043)" gradientUnits="userSpaceOnUse"
                spreadMethod="pad">
                <stop offset="0" stop-color="#4c3c4a" />
                <stop offset=".18717591" stop-color="#4c3c4a" />
                <stop offset=".514155" stop-color="#6fb4ca" />
                <stop offset=".51602797" stop-color="#6fb4ca" />
                <stop offset="1" stop-color="#395059" />
            </linearGradient>
            <linearGradient id="k" x1="0" x2="1" y1="0" y2="0"
                gradientTransform="matrix(-54.865131 0 0 -51.020809 477.88593 1048.8295)" gradientUnits="userSpaceOnUse"
                spreadMethod="pad">
                <stop offset="0" stop-color="#1f1e24" />
                <stop offset=".00036059" stop-color="#1f1e24" />
                <stop offset=".0876708" stop-color="#4c3c4a" />
                <stop offset=".24293053" stop-color="#4c3c4a" />
                <stop offset=".514155" stop-color="#1f1e24" />
                <stop offset=".5154277" stop-color="#1f1e24" />
                <stop offset=".844292" stop-color="#e6e6e6" />
                <stop offset=".87693526" stop-color="#1f1e24" />
                <stop offset="1" stop-color="#1f1e24" />
            </linearGradient>
            <linearGradient id="m" x1="0" x2="1" y1="0" y2="0"
                gradientTransform="matrix(691.90881 0 0 -691.90881 476.19794 1169.5004)" gradientUnits="userSpaceOnUse"
                spreadMethod="pad">
                <stop offset="0" stop-color="#6fb4ca" />
                <stop offset=".00052587" stop-color="#6fb4ca" />
                <stop offset=".127854" stop-color="#4c3c4a" />
                <stop offset=".26848521" stop-color="#4c3c4a" />
                <stop offset=".514155" stop-color="#6fb4ca" />
                <stop offset=".5151883" stop-color="#6fb4ca" />
                <stop offset=".782191" stop-color="#e6e6e6" />
                <stop offset=".82785336" stop-color="#395059" />
                <stop offset="1" stop-color="#395059" />
            </linearGradient>
            <linearGradient id="o" x1="0" x2="1" y1="0" y2="0"
                gradientTransform="matrix(-692.04138 0 0 692.04138 1168.2319 711.409)" gradientUnits="userSpaceOnUse"
                spreadMethod="pad">
                <stop offset="0" stop-color="#395059" />
                <stop offset=".22941775" stop-color="#0a080f" />
                <stop offset=".500913" stop-color="#0a080f" />
                <stop offset=".71419663" stop-color="#0a080f" />
                <stop offset="1" stop-color="#4c3c4a" />
            </linearGradient>
            <linearGradient id="q" x1="0" x2="1" y1="0" y2="0"
                gradientTransform="matrix(692.03406 0 0 -692.03406 476.19794 481.89548)" gradientUnits="userSpaceOnUse"
                spreadMethod="pad">
                <stop offset="0" stop-color="#6fb4ca" />
                <stop offset=".00052587" stop-color="#6fb4ca" />
                <stop offset=".127854" stop-color="#4c3c4a" />
                <stop offset=".26848521" stop-color="#4c3c4a" />
                <stop offset=".514155" stop-color="#6fb4ca" />
                <stop offset=".5151883" stop-color="#6fb4ca" />
                <stop offset=".782191" stop-color="#e6e6e6" />
                <stop offset=".82785336" stop-color="#395059" />
                <stop offset="1" stop-color="#395059" />
            </linearGradient>
            <linearGradient id="t" x1="0" x2="1" y1="0" y2="0"
                gradientTransform="matrix(0 -490.30096 -490.30096 0 822.20941 929.31293)" gradientUnits="userSpaceOnUse"
                spreadMethod="pad">
                <stop offset="0" stop-color="#0a080f" />
                <stop offset=".00103858" stop-color="#0a080f" />
                <stop offset=".252511" stop-color="#4d3f4d" />
                <stop offset=".323802" stop-color="#4d3f4d" />
                <stop offset=".514155" stop-color="#6fb4ca" />
                <stop offset=".5154277" stop-color="#6fb4ca" />
                <stop offset=".844292" stop-color="#e6e6e6" />
                <stop offset=".87693526" stop-color="#395059" />
                <stop offset="1" stop-color="#395059" />
            </linearGradient>
            <linearGradient id="v" x1="0" x2="1" y1="0" y2="0"
                gradientTransform="matrix(692.03412 0 0 -692.03412 476.19608 979.21783)" gradientUnits="userSpaceOnUse"
                spreadMethod="pad">
                <stop offset="0" stop-color="#6fb4ca" />
                <stop offset=".03235172" stop-color="#4c3c4a" />
                <stop offset=".110046" stop-color="#4c3c4a" />
                <stop offset=".49630791" stop-color="#6fb4ca" />
                <stop offset=".506849" stop-color="#6fb4ca" />
                <stop offset=".50792454" stop-color="#6fb4ca" />
                <stop offset=".785843" stop-color="#e6e6e6" />
                <stop offset=".86721334" stop-color="#e6e6e6" />
                <stop offset="1" stop-color="#395059" />
            </linearGradient>
            <linearGradient id="x" x1="0" x2="1" y1="0" y2="0"
                gradientTransform="matrix(692.03412 0 0 -692.03412 476.19608 752.7569)" gradientUnits="userSpaceOnUse"
                spreadMethod="pad">
                <stop offset="0" stop-color="#6fb4ca" />
                <stop offset=".00036059" stop-color="#6fb4ca" />
                <stop offset=".0876708" stop-color="#4c3c4a" />
                <stop offset=".24293053" stop-color="#4c3c4a" />
                <stop offset=".514155" stop-color="#6fb4ca" />
                <stop offset=".5154277" stop-color="#6fb4ca" />
                <stop offset=".844292" stop-color="#e6e6e6" />
                <stop offset=".87693526" stop-color="#395059" />
                <stop offset="1" stop-color="#395059" />
            </linearGradient>
            <linearGradient id="z" x1="0" x2="1" y1="0" y2="0"
                gradientTransform="matrix(691.91437 0 0 -691.91437 476.25406 722.72974)" gradientUnits="userSpaceOnUse"
                spreadMethod="pad">
                <stop offset="0" stop-color="#0a080f" />
                <stop offset=".64182915" stop-color="#0a080f" />
                <stop offset=".815068" stop-color="#e6e6e6" />
                <stop offset=".85383789" stop-color="#0a080f" />
                <stop offset="1" stop-color="#0a080f" />
            </linearGradient>
            <linearGradient id="B" x1="0" x2="1" y1="0" y2="0"
                gradientTransform="matrix(118.10168 0 0 -118.10168 763.04181 1225.7614)" gradientUnits="userSpaceOnUse"
                spreadMethod="pad">
                <stop offset="0" stop-color="#4c3c4a" />
                <stop offset=".18717591" stop-color="#4c3c4a" />
                <stop offset=".514155" stop-color="#6fb4ca" />
                <stop offset=".5151883" stop-color="#6fb4ca" />
                <stop offset=".782191" stop-color="#e6e6e6" />
                <stop offset=".82785336" stop-color="#395059" />
                <stop offset="1" stop-color="#395059" />
            </linearGradient>
            <linearGradient id="D" x1="0" x2="1" y1="0" y2="0"
                gradientTransform="matrix(55.955185 0 0 -55.955185 1168.2302 902.60016)" gradientUnits="userSpaceOnUse"
                spreadMethod="pad">
                <stop offset="0" stop-color="#5e8592" />
                <stop offset=".29378809" />
                <stop offset=".554337" />
                <stop offset=".55605507" />
                <stop offset="1" stop-color="#395059" />
            </linearGradient>
            <linearGradient id="F" x1="0" x2="1" y1="0" y2="0"
                gradientTransform="matrix(55.955185 0 0 -55.955185 1168.2302 987.67523)" gradientUnits="userSpaceOnUse"
                spreadMethod="pad">
                <stop offset="0" stop-color="#1f1e24" />
                <stop offset=".157533" stop-color="#4a5f67" />
                <stop offset=".19437843" stop-color="#4a5f67" />
                <stop offset=".360731" stop-color="#6fb4ca" />
                <stop offset=".36207411" stop-color="#6fb4ca" />
                <stop offset=".709131" stop-color="#e6e6e6" />
                <stop offset=".87646786" stop-color="#395059" />
                <stop offset=".92694" stop-color="#395059" />
                <stop offset=".98532133" stop-color="#395059" />
                <stop offset="1" stop-color="#395059" />
            </linearGradient>
            <linearGradient id="H" x1="0" x2="1" y1="0" y2="0"
                gradientTransform="matrix(43.791016 0 0 -43.791016 1168.2302 885.42187)" gradientUnits="userSpaceOnUse"
                spreadMethod="pad">
                <stop offset="0" stop-color="#1f1e24" />
                <stop offset=".157533" stop-color="#4a5f67" />
                <stop offset=".21160039" stop-color="#4a5f67" />
                <stop offset=".455708" stop-color="#6fb4ca" />
                <stop offset=".45703703" stop-color="#6fb4ca" />
                <stop offset=".800456" stop-color="#e6e6e6" />
                <stop offset=".84054689" stop-color="#395059" />
                <stop offset="1" stop-color="#395059" />
            </linearGradient>
            <linearGradient id="J" x1="0" x2="1" y1="0" y2="0"
                gradientTransform="matrix(31.175705 0 0 -31.175705 1168.2302 727.60345)" gradientUnits="userSpaceOnUse"
                spreadMethod="pad">
                <stop offset="0" stop-color="#1f1e24" />
                <stop offset=".157533" stop-color="#4a5f67" />
                <stop offset=".19437843" stop-color="#4a5f67" />
                <stop offset=".360731" stop-color="#6fb4ca" />
                <stop offset=".36207411" stop-color="#6fb4ca" />
                <stop offset=".709131" stop-color="#e6e6e6" />
                <stop offset=".87646786" stop-color="#395059" />
                <stop offset=".92694" stop-color="#395059" />
                <stop offset=".98532133" stop-color="#395059" />
                <stop offset="1" stop-color="#395059" />
            </linearGradient>
            <linearGradient id="L" x1="0" x2="1" y1="0" y2="0"
                gradientTransform="matrix(-54.865131 0 0 -51.020809 477.88593 902.60016)" gradientUnits="userSpaceOnUse"
                spreadMethod="pad">
                <stop offset="0" stop-color="#4c3c4a" />
                <stop offset=".20180399" stop-color="#4c3c4a" />
                <stop offset=".554337" />
                <stop offset=".55605507" />
                <stop offset="1" stop-color="#395059" />
            </linearGradient>
            <linearGradient id="N" x1="0" x2="1" y1="0" y2="0"
                gradientTransform="matrix(54.865131 0 0 51.020809 423.02078 987.67523)" gradientUnits="userSpaceOnUse"
                spreadMethod="pad">
                <stop offset="0" stop-color="#4c3c4a" />
                <stop offset=".12068369" stop-color="#4c3c4a" />
                <stop offset=".331507" stop-color="#6fb4ca" />
                <stop offset=".33408409" stop-color="#6fb4ca" />
                <stop offset="1" stop-color="#395059" />
            </linearGradient>
            <linearGradient id="P" x1="0" x2="1" y1="0" y2="0"
                gradientTransform="matrix(42.937931 0 0 39.929329 434.948 885.42187)" gradientUnits="userSpaceOnUse"
                spreadMethod="pad">
                <stop offset="0" stop-color="#4c3c4a" />
                <stop offset=".18717591" stop-color="#4c3c4a" />
                <stop offset=".514155" stop-color="#6fb4ca" />
                <stop offset=".51602797" stop-color="#6fb4ca" />
                <stop offset="1" stop-color="#395059" />
            </linearGradient>
            <linearGradient id="R" x1="0" x2="1" y1="0" y2="0"
                gradientTransform="matrix(30.568376 0 0 28.426493 447.31754 727.60345)" gradientUnits="userSpaceOnUse"
                spreadMethod="pad">
                <stop offset="0" stop-color="#4c3c4a" />
                <stop offset=".18717591" stop-color="#4c3c4a" />
                <stop offset=".514155" stop-color="#6fb4ca" />
                <stop offset=".51602797" stop-color="#6fb4ca" />
                <stop offset="1" stop-color="#395059" />
            </linearGradient>
        </g>
        <radialGradient id="c" cx="0" cy="0" r="1" fx="0" fy="0"
            gradientTransform="matrix(851.4693 0 0 -851.4693 800 900)" gradientUnits="userSpaceOnUse"
            spreadMethod="pad">
            <stop offset="0" stop-color="var(--gradient-mando-stop-0, #1d71b8)" />
            <stop offset=".1242" stop-color="var(--gradient-mando-stop-1, #1d71b8)" />
            <stop offset=".6281704" stop-color="var(--gradient-mando-stop-2, #062642)" />
            <stop offset=".679908" stop-color="var(--gradient-mando-stop-3, #062642)" />
            <stop offset=".97716474" stop-color="var(--gradient-mando-stop-4, #1f1f26)" />
            <stop offset="1" stop-color="var(--gradient-mando-stop-5, #1f1f26)" />
        </radialGradient>
    </defs>
    <g data-mando="">
        <path fill="url(#c)" d="M0 0h1600v1800H0Z" transform="matrix(1.3333333 0 0 -1.3333333 0 2400)" />
        <path fill="url(#e)" d="M1168.231 1091.553v-46.298h43.791v16.311c0 16.562-13.426 29.987-29.988 29.987z"
            transform="matrix(1.3333333 0 0 -1.3333333 0 2400)" />
        <g clip-path="url(#f)" transform="matrix(1.3333333 0 0 -1.3333333 0 2400)">
            <path fill="none" stroke="#000" stroke-miterlimit="10"
                d="M1212.0215 1045.2549h-43.791v46.299h13.804c16.561 0 29.987-13.426 29.987-29.987Z" />
        </g>
        <path fill="url(#g)" d="M1168.231 1057.668v-17.678l55.954 5.265-12.663 12.413z"
            transform="matrix(1.3333333 0 0 -1.3333333 0 2400)" />
        <g clip-path="url(#h)" transform="matrix(1.3333333 0 0 -1.3333333 0 2400)">
            <path fill="none" stroke="#000" stroke-miterlimit="10"
                d="m1224.1855 1045.2549-55.955-5.265v17.679h43.292z" />
        </g>
        <path fill="url(#i)" d="M464.351 1091.553c-16.238 0-29.403-13.164-29.403-29.403v-16.895h42.938v46.298z"
            transform="matrix(1.3333333 0 0 -1.3333333 0 2400)" />
        <g clip-path="url(#j)" transform="matrix(1.3333333 0 0 -1.3333333 0 2400)">
            <path fill="none" stroke="#000" stroke-miterlimit="10"
                d="M434.9478 1045.2549h42.938v46.299h-13.535c-16.238 0-29.403-13.165-29.403-29.403Z" />
        </g>
        <path fill="url(#k)" d="m435.437 1057.668-12.416-12.413 54.865-5.265v17.678z"
            transform="matrix(1.3333333 0 0 -1.3333333 0 2400)" />
        <g clip-path="url(#l)" transform="matrix(1.3333333 0 0 -1.3333333 0 2400)">
            <path fill="none" stroke="#000" stroke-miterlimit="10"
                d="m423.021 1045.2549 54.865-5.265v17.679h-42.448Z" />
        </g>
        <path fill="url(#m)"
            d="M476.198 989.771h691.907c0 198.523-154.888 359.459-345.954 359.459-191.065 0-345.953-160.936-345.953-359.459"
            transform="matrix(1.3333333 0 0 -1.3333333 0 2400)" />
        <g clip-path="url(#n)" transform="matrix(1.3333333 0 0 -1.3333333 0 2400)">
            <path fill="none" stroke="#000" stroke-miterlimit="10"
                d="M1168.1064 989.771c0 198.523-154.889 359.459-345.954 359.459-191.066 0-345.955-160.936-345.955-359.459" />
        </g>
        <path fill="url(#o)"
            d="M476.198 989.771c0-12.956-.016-24.75 0-38.266.083-5.114 0-8.933 0-13.615V544.108c0-28.654 25.285-51.882 56.474-51.882l213.623-43.671c9.354-9.521 22.889-15.508 37.949-15.508h75.933c15.075 0 28.622 6 37.976 15.538l213.477 43.641c31.19 0 56.475 23.228 56.475 51.882V937.89c0 4.682-.116 7.588 0 13.433.281 13.242 0 25.492 0 38.448z"
            transform="matrix(1.3333333 0 0 -1.3333333 0 2400)" />
        <g clip-path="url(#p)" transform="matrix(1.3333333 0 0 -1.3333333 0 2400)">
            <path fill="none" stroke="#000" stroke-miterlimit="10"
                d="M476.1978 989.771c0-12.956-.016-24.75 0-38.266.083-5.114 0-8.933 0-13.615V544.107c0-28.653 25.285-51.88 56.475-51.88l213.623-43.672c9.353-9.521 22.888-15.508 37.948-15.508h75.935c15.075 0 28.622 6 37.977 15.538l213.477 43.642c31.19 0 56.474 23.227 56.474 51.88V937.89c0 4.682-.116 7.588 0 13.432.282 13.243 0 25.493 0 38.449" />
        </g>
        <path fill="url(#q)"
            d="M479.17 527.45c7.554-20.482 28.654-35.224 53.5-35.224l213.624-43.671c9.353-9.521 22.888-15.508 37.948-15.508h75.935c15.075 0 28.622 6 37.976 15.538l213.477 43.641c24.952 0 46.125 14.868 53.596 35.484-22.421 169.438-167.448 300.202-343.011 300.202-175.657 0-320.743-130.893-343.045-300.462"
            transform="matrix(1.3333333 0 0 -1.3333333 0 2400)" />
        <g clip-path="url(#r)" transform="matrix(1.3333333 0 0 -1.3333333 0 2400)">
            <path fill="none" stroke="#000" stroke-miterlimit="10"
                d="M1168.2324 481.8955c0-191.1-154.918-346.017-346.018-346.017-191.099 0-346.017 154.917-346.017 346.017s154.918 346.017 346.017 346.017c191.1 0 346.018-154.917 346.018-346.017Z" />
        </g>
        <g clip-path="url(#s)" transform="matrix(1.3333333 0 0 -1.3333333 0 2400)">
            <path fill="none" stroke="#000" stroke-miterlimit="10"
                d="M476.1963 989.771c0-12.956-.017-24.75 0-38.266.083-5.114 0-8.933 0-13.615V544.107c0-28.653 25.284-51.88 56.474-51.88l213.623-43.672c9.354-9.521 22.889-15.508 37.949-15.508h75.934c15.076 0 28.623 6 37.977 15.538l213.478 43.642c31.189 0 56.473 23.227 56.473 51.88V937.89c0 4.682-.115 7.588 0 13.432.282 13.243 0 25.493 0 38.449 0 198.523-154.888 359.459-345.954 359.459-191.065 0-345.954-160.936-345.954-359.459" />
            <path fill="#6fb4ca"
                d="M1168.2305 1072.4663h-692.034v-143.153h274.436v-446.949c0-8.789 7.125-15.914 15.914-15.914h111.326c8.789 0 15.914 7.125 15.914 15.914v446.949h274.444Z" />
            <path fill="none" stroke="#000" stroke-miterlimit="10"
                d="M1168.2305 1072.4663h-692.034v-143.153h274.436v-446.949c0-8.789 7.125-15.914 15.914-15.914h111.326c8.789 0 15.914 7.125 15.914 15.914v446.949h274.444Z" />
        </g>
        <path fill="url(#t)" d="m476.193 929.313 274.436-490.301 147.521 1.096-.005-1.096 270.081 490.301z"
            transform="matrix(1.3333333 0 0 -1.3333333 0 2400)" />
        <g clip-path="url(#u)" transform="matrix(1.3333333 0 0 -1.3333333 0 2400)">
            <path fill="none" stroke="#000" stroke-miterlimit="10"
                d="m898.1494 440.1084-147.521-1.097-274.436 490.302h692.034l-270.081-490.302" />
        </g>
        <path fill="url(#v)"
            d="M476.196 1091.553v-50.773s264.084-61.562 274.433-173.898h147.516s26.01 120.305 270.086 173.898v50.773z"
            transform="matrix(1.3333333 0 0 -1.3333333 0 2400)" />
        <g clip-path="url(#w)" transform="matrix(1.3333333 0 0 -1.3333333 0 2400)">
            <path fill="none" stroke="#000" stroke-miterlimit="10"
                d="M476.1963 1040.7803s264.083-61.563 274.433-173.898h147.516s26.01 120.304 270.085 173.898v50.773h-692.034Z" />
        </g>
        <path fill="url(#x)"
            d="M476.196 1072.466V927.965S740.28 752.756 750.629 433.047h147.516s26.01 342.388 270.086 494.918v144.501z"
            transform="matrix(1.3333333 0 0 -1.3333333 0 2400)" />
        <g clip-path="url(#y)" transform="matrix(1.3333333 0 0 -1.3333333 0 2400)">
            <path fill="none" stroke="#000" stroke-miterlimit="10"
                d="M476.1963 927.9648s264.083-175.208 274.433-494.918h147.516s26.01 342.389 270.085 494.918v144.501h-692.034Z" />
        </g>
        <path fill="url(#z)"
            d="M476.254 1012.412c0-29.508 23.674-53.428 52.878-53.428l221.5-44.562 31.388-442h-.473l-15.62-39.375h112.734l-18.117 38.539 33.242 442.836 221.505 44.562c29.203 0 52.877 23.92 52.877 53.428z"
            transform="matrix(1.3333333 0 0 -1.3333333 0 2400)" />
        <g clip-path="url(#A)" transform="matrix(1.3333333 0 0 -1.3333333 0 2400)">
            <path fill="none" stroke="#000" stroke-miterlimit="10"
                d="M476.2539 1012.4121c0-29.507 23.674-53.428 52.878-53.428l221.501-44.562 31.387-442h-.473l-15.62-39.375h112.734l-18.117 38.539 33.242 442.836 221.505 44.562c29.203 0 52.877 23.921 52.877 53.428z" />
        </g>
        <path fill="url(#B)"
            d="M803.479 1388.797c-22.333 0-40.437-18.104-40.437-40.437v-245.198c0-22.332 18.104-40.437 40.437-40.437h37.227c22.333 0 40.437 18.105 40.437 40.437v245.198c0 22.333-18.104 40.437-40.437 40.437z"
            transform="matrix(1.3333333 0 0 -1.3333333 0 2400)" />
        <g clip-path="url(#C)" transform="matrix(1.3333333 0 0 -1.3333333 0 2400)">
            <path fill="none" stroke="#000" stroke-miterlimit="10"
                d="M840.7061 1062.7251h-37.228c-22.332 0-40.436 18.104-40.436 40.438v245.197c0 22.333 18.104 40.437 40.436 40.437h37.228c22.333 0 40.438-18.104 40.438-40.437v-245.197c0-22.334-18.105-40.438-40.438-40.438Z" />
        </g>
        <path fill="url(#D)" d="m1168.231 855.391 27.977 6.706 27.977 67.998-55.954 19.715z"
            transform="matrix(1.3333333 0 0 -1.3333333 0 2400)" />
        <g clip-path="url(#E)" transform="matrix(1.3333333 0 0 -1.3333333 0 2400)">
            <path fill="none" stroke="#000" stroke-miterlimit="10"
                d="m1196.208 862.0977-27.978-6.707v94.419l55.956-19.714Z" />
        </g>
        <path fill="url(#F)" d="M1168.231 1045.255v-115.16l16.117 14.086 39.837-14.086v115.16z"
            transform="matrix(1.3333333 0 0 -1.3333333 0 2400)" />
        <g clip-path="url(#G)" transform="matrix(1.3333333 0 0 -1.3333333 0 2400)">
            <path fill="none" stroke="#000" stroke-miterlimit="10"
                d="m1224.1855 930.0952-39.838 14.085-16.117-14.085v115.16h55.955Z" />
        </g>
        <path fill="url(#H)" d="M1168.231 848.51h43.791v73.824h-43.791z"
            transform="matrix(1.3333333 0 0 -1.3333333 0 2400)" />
        <g clip-path="url(#I)" transform="matrix(1.3333333 0 0 -1.3333333 0 2400)">
            <path fill="none" stroke="#000" stroke-miterlimit="10" d="M1212.021 848.51h-43.791v73.825h43.791z" />
        </g>
        <path fill="url(#J)" d="M1168.231 848.51V606.697c7.891 0 14.289 8.195 14.289 18.303l16.887 223.51z"
            transform="matrix(1.3333333 0 0 -1.3333333 0 2400)" />
        <g clip-path="url(#K)" transform="matrix(1.3333333 0 0 -1.3333333 0 2400)">
            <path fill="none" stroke="#000" stroke-miterlimit="10"
                d="M1168.2305 606.6973v241.812h31.176l-16.887-223.509c0-10.109-6.397-18.303-14.289-18.303Z" />
        </g>
        <path fill="url(#L)" d="m423.021 930.095 27.432-67.998 27.433-6.706v94.419z"
            transform="matrix(1.3333333 0 0 -1.3333333 0 2400)" />
        <g clip-path="url(#M)" transform="matrix(1.3333333 0 0 -1.3333333 0 2400)">
            <path fill="none" stroke="#000" stroke-miterlimit="10"
                d="m450.4531 862.0977 27.433-6.707v94.419l-54.865-19.714Z" />
        </g>
        <path fill="url(#N)" d="M423.021 1045.255v-115.16l39.061 14.086 15.804-14.086v115.16z"
            transform="matrix(1.3333333 0 0 -1.3333333 0 2400)" />
        <g clip-path="url(#O)" transform="matrix(1.3333333 0 0 -1.3333333 0 2400)">
            <path fill="none" stroke="#000" stroke-miterlimit="10"
                d="m423.021 930.0952 39.062 14.085 15.803-14.085v115.16h-54.865Z" />
        </g>
        <path fill="url(#P)" d="M434.948 848.51h42.938v73.824h-42.938z"
            transform="matrix(1.3333333 0 0 -1.3333333 0 2400)" />
        <g clip-path="url(#Q)" transform="matrix(1.3333333 0 0 -1.3333333 0 2400)">
            <path fill="none" stroke="#000" stroke-miterlimit="10" d="M434.948 848.51h42.938v73.825h-42.938z" />
        </g>
        <path fill="url(#R)" d="M447.317 848.51 463.875 625c0-10.108 6.273-18.303 14.011-18.303V848.51z"
            transform="matrix(1.3333333 0 0 -1.3333333 0 2400)" />
        <g clip-path="url(#S)" transform="matrix(1.3333333 0 0 -1.3333333 0 2400)">
            <path fill="none" stroke="#000" stroke-miterlimit="10"
                d="M477.8857 606.6973v241.812h-30.568l16.558-223.509c0-10.109 6.272-18.303 14.01-18.303Z" />
        </g>
    </g>
</svg>