<svg width="244" height="247" viewBox="0 0 244 247" xmlns="http://www.w3.org/2000/svg"
    xmlns:xlink="http://www.w3.org/1999/xlink">
    <style>
        #text-0,
        #border {
            fill: rgb(15, 4, 76);
        }

        #bg {
            fill: rgb(255, 255, 255);
        }

        @media (prefers-color-scheme: dark) {

            #text-0,
            #border {
                fill: rgb(125, 229, 237);
            }

            #bg {
                fill: rgb(25, 25, 25);
            }
        }
    </style>
    <rect id="bg" width="100%" height="100%" />

    <g transform="translate(8 64) scale(2.7)">
        <svg width="244" height="48" viewBox="3.79999995 -35.25 183.08999634 35.65000153">
            <path id="text-0"
                d="M27.45-10.8 33.35 0h-7L20.3-11.25q-.85-1.6-2.1-2.25-1.25-.65-3.15-.65h-4.9V0H3.8v-35.25h15.6q6 0 9.13 2.67 3.12 2.68 3.12 7.73 0 4.05-2.27 6.67-2.28 2.63-6.43 3.43 2.8.75 4.5 3.95Zm-8.95-8.3q3.65 0 5.35-1.38 1.7-1.37 1.7-4.22 0-2.9-1.7-4.23-1.7-1.32-5.35-1.32h-8.4v11.15h8.4Zm43.7 8.3L68.1 0h-7l-6.05-11.25q-.85-1.6-2.1-2.25-1.25-.65-3.15-.65h-4.9V0h-6.35v-35.25h15.6q6 0 9.12 2.67 3.13 2.68 3.13 7.73 0 4.05-2.28 6.67-2.27 2.63-6.42 3.43 2.8.75 4.5 3.95Zm-8.95-8.3q3.65 0 5.35-1.38 1.7-1.37 1.7-4.22 0-2.9-1.7-4.23-1.7-1.32-5.35-1.32h-8.4v11.15Z" />
        </svg>
    </g>
    <path id="border"
        d="M0 93.804V0h244v93h-4.291V5.292H4.292v88.512H0m0 59.592V247h244v-92.804h-4.291v88.512H4.292v-88.512H0" />
</svg>