<svg xmlns="http://www.w3.org/2000/svg" version="1.1" xmlns:xlink="http://www.w3.org/1999/xlink"
    xmlns:svgjs="http://svgjs.dev/svgjs" width="1000" height="1000" viewBox="0 0 1000 1000">
    <rect width="1000" height="1000" fill="#0f1553"></rect>
    <g transform="matrix(0.7,0,0,0.7,150.53267689538308,265.538395744681)"><svg viewBox="0 0 211 141"
            data-background-color="#0f1553" preserveAspectRatio="xMidYMid meet" height="668" width="1000"
            xmlns="http://www.w3.org/2000/svg" xmlns:xlink="http://www.w3.org/1999/xlink">
            <g id="tight-bounds" transform="matrix(1,0,0,1,-0.16056403560833132,0.19949999999997203)"><svg
                    viewBox="0 0 211.32112807121666 140.60052000000002" height="140.60052000000002"
                    width="211.32112807121666">
                    <g><svg viewBox="0 0 211.32112807121666 140.60052000000002" height="140.60052000000002"
                            width="211.32112807121666">
                            <g><svg viewBox="0 0 211.32112807121666 140.60052000000002" height="140.60052000000002"
                                    width="211.32112807121666">
                                    <g>
                                        <path d="M0 140.601v-140.601h211.321v140.601z" fill="#eceffb"
                                            stroke="transparent" stroke-width="0" rx="0%"
                                            data-fill-palette-color="tertiary"></path>
                                        <path d="M3.283 137.317v-134.034h204.755v134.034z" fill="#2d3cd7"
                                            stroke="transparent" stroke-width="0" rx="0%"
                                            data-fill-palette-color="quaternary"></path>
                                        <path d="M9.85 130.751v-120.901h191.621v120.901z" fill="#eceffb"
                                            stroke="transparent" stroke-width="0" data-fill-palette-color="tertiary">
                                        </path>
                                    </g>
                                    <g transform="matrix(1,0,0,1,19.699740000000013,19.69974)" id="textblocktransform">
                                        <svg viewBox="0 0 171.92164807121665 101.20104000000002"
                                            height="101.20104000000002" width="171.92164807121665" id="textblock">
                                            <g><svg viewBox="0 0 171.92164807121665 101.20104000000002"
                                                    height="101.20104000000002" width="171.92164807121665">
                                                    <g transform="matrix(1,0,0,1,0,0)"><svg width="171.92164807121665"
                                                            viewBox="3.25 -33.70000076293945 57.25 33.70000076293945"
                                                            height="101.20104000000002" data-palette-color="#2d3cd7">
                                                            <path
                                                                d="M14.75-27.45L10.95-27.45 10.95-17.95 14.6-17.95Q19.6-17.95 19.6-22.85L19.6-22.85Q19.6-25 18.3-26.23 17-27.45 14.75-27.45L14.75-27.45ZM29.8 0L20.6 0 13.3-11.7 10.95-11.7 10.95 0 3.25 0 3.25-33.7 14.9-33.7Q20.55-33.7 23.98-30.7 27.4-27.7 27.4-22.9L27.4-22.9Q27.4-15.7 21.25-12.95L21.25-12.95 29.8 0ZM45.45-27.45L41.65-27.45 41.65-17.95 45.3-17.95Q50.3-17.95 50.3-22.85L50.3-22.85Q50.3-25 49-26.23 47.7-27.45 45.45-27.45L45.45-27.45ZM60.5 0L51.3 0 44-11.7 41.65-11.7 41.65 0 33.95 0 33.95-33.7 45.6-33.7Q51.25-33.7 54.67-30.7 58.1-27.7 58.1-22.9L58.1-22.9Q58.1-15.7 51.95-12.95L51.95-12.95 60.5 0Z"
                                                                opacity="1" transform="matrix(1,0,0,1,0,0)"
                                                                fill="#2d3cd7" class="undefined-text-0"
                                                                data-fill-palette-color="quaternary" id="text-0"></path>
                                                        </svg></g>
                                                </svg></g>
                                        </svg></g>
                                </svg></g>
                            <g></g>
                        </svg></g>
                    <defs></defs>
                </svg>
                <rect width="211.32112807121666" height="140.60052000000002" fill="none" stroke="none"
                    visibility="hidden"></rect>
            </g>
        </svg></g>
</svg>