<svg xmlns="http://www.w3.org/2000/svg" xmlns:xlink="http://www.w3.org/1999/xlink" viewBox="0 0 244 247">
  <g transform="translate(0 99.1286278)">
    <svg width="244.43136" height="48.9427444" viewBox="4.4000001 -36.36000061 184.43000793 36.93000031">
      <path fill="currentColor"
        d="M8.81 0H4.4v-36.36h12.29q4.26 0 7 1.44 2.73 1.45 4.04 3.97 1.32 2.52 1.32 5.74 0 3.21-1.32 5.7-1.31 2.48-4.03 3.89-2.71 1.42-6.94 1.42H6.82v-3.98h9.8q2.91 0 4.7-.85 1.78-.86 2.59-2.43.81-1.57.81-3.75 0-2.19-.82-3.82t-2.61-2.53q-1.79-.9-4.74-.9H8.81V0Zm7.74-16.34h4.97L30.47 0h-5.11l-8.81-16.34ZM40.76 0h-4.4v-36.36h12.29q4.26 0 6.99 1.44 2.74 1.45 4.05 3.97 1.32 2.52 1.32 5.74 0 3.21-1.32 5.7-1.31 2.48-4.03 3.89-2.72 1.42-6.94 1.42h-9.94v-3.98h9.8q2.91 0 4.69-.85 1.79-.86 2.6-2.43.8-1.57.8-3.75 0-2.19-.81-3.82-.82-1.63-2.61-2.53-1.8-.9-4.74-.9h-7.75V0Zm7.75-16.34h4.97L62.43 0h-5.12l-8.8-16.34Zm43.31-16.12H80.39v-3.9h27.27v3.9H96.23V0h-4.41v-32.46ZM121.37.57q-3.94 0-6.79-1.75t-4.39-4.9q-1.54-3.15-1.54-7.34 0-4.19 1.54-7.4 1.54-3.2 4.3-5.01 2.76-1.8 6.45-1.8 2.13 0 4.21.71t3.78 2.3q1.71 1.59 2.72 4.2 1.01 2.61 1.01 6.43v1.77h-21.02v-3.62h16.76q0-2.31-.92-4.12-.91-1.81-2.59-2.86-1.68-1.04-3.95-1.04-2.5 0-4.32 1.23-1.82 1.23-2.8 3.21-.97 1.97-.97 4.22v2.42q0 3.09 1.07 5.22 1.07 2.14 2.99 3.25 1.92 1.11 4.46 1.11 1.65 0 2.99-.47 1.34-.47 2.32-1.42.97-.95 1.51-2.37l4.04 1.14q-.63 2.06-2.14 3.61-1.51 1.56-3.73 2.42-2.22.86-4.99.86Zm28.76 0q-3.84 0-6.61-1.81-2.77-1.81-4.26-4.99-1.49-3.18-1.49-7.26 0-4.16 1.54-7.35 1.53-3.18 4.29-4.99 2.77-1.8 6.46-1.8 2.87 0 5.18 1.07 2.31 1.06 3.79 2.98 1.47 1.92 1.82 4.47h-4.19q-.48-1.86-2.12-3.31-1.64-1.44-4.41-1.44-2.45 0-4.29 1.27-1.84 1.27-2.86 3.56-1.02 2.3-1.02 5.39 0 3.16 1.01 5.51 1 2.34 2.84 3.64 1.83 1.29 4.32 1.29 1.63 0 2.96-.56 1.34-.57 2.26-1.64.92-1.06 1.31-2.55h4.19q-.35 2.41-1.74 4.34-1.4 1.92-3.68 3.05-2.28 1.13-5.3 1.13Zm21.02-16.98V0h-4.19v-36.36h4.19v13.35h.35q.96-2.11 2.89-3.37 1.93-1.25 5.14-1.25 2.79 0 4.88 1.11 2.1 1.11 3.26 3.39 1.16 2.28 1.16 5.8V0h-4.19v-17.05q0-3.24-1.67-5.03-1.68-1.78-4.65-1.78-2.06 0-3.68.87-1.63.87-2.56 2.54-.93 1.66-.93 4.04Z" />
    </svg>
  </g>
  <path fill="currentColor"
    d="M0 93.129V1h244.431v92.129h-4.413V5.414H4.414v87.715H0m0 60.942V246.2h244.431v-92.129h-4.413v87.715H4.414v-87.715H0" />
</svg>