<svg xmlns="http://www.w3.org/2000/svg" width="1000" height="668">
    <svg viewBox="0 0 211 141" data-background-color="#0f1553" height="668" width="1000"
        xmlns="http://www.w3.org/2000/svg" xmlns:xlink="http://www.w3.org/1999/xlink"
        transform="translate(.760967 -.94514894)">
        <svg viewBox="0 0 211.32112807 140.60052" height="140.60052" width="211.32112807" id="tight-bounds"
            transform="translate(-.16056404 .1995)">
            <svg viewBox="0 0 211.32112807 140.60052" height="140.60052" width="211.32112807">
                <svg viewBox="0 0 211.32112807 140.60052" height="140.60052" width="211.32112807">
                    <g stroke="transparent" stroke-width="0">
                        <path d="M0 140.601V0h211.321v140.601z" fill="transparent" data-fill-palette-color="tertiary" />
                        <path d="M3.283 137.317V3.283h204.755v134.034z" fill="#2d3cd7"
                            data-fill-palette-color="quaternary" />
                        <path d="M9.85 130.751V9.85h191.621v120.901z" fill="#eceffb"
                            data-fill-palette-color="tertiary" />
                    </g>
                    <g transform="translate(19.69974 19.69974)" id="textblocktransform">
                        <svg viewBox="0 0 171.92164807 101.20104" height="101.20104" width="171.92164807"
                            id="textblock">
                            <svg viewBox="0 0 171.92164807 101.20104" height="101.20104" width="171.92164807">
                                <svg width="171.92164807" viewBox="3.25 -33.70000076 57.25 33.70000076"
                                    height="101.20104" data-palette-color="#2d3cd7">
                                    <path
                                        d="M14.75-27.45h-3.8v9.5h3.65q5 0 5-4.9 0-2.15-1.3-3.38-1.3-1.22-3.55-1.22ZM29.8 0h-9.2l-7.3-11.7h-2.35V0h-7.7v-33.7H14.9q5.65 0 9.08 3 3.42 3 3.42 7.8 0 7.2-6.15 9.95L29.8 0Zm15.65-27.45h-3.8v9.5h3.65q5 0 5-4.9 0-2.15-1.3-3.38-1.3-1.22-3.55-1.22ZM60.5 0h-9.2L44-11.7h-2.35V0h-7.7v-33.7H45.6q5.65 0 9.07 3 3.43 3 3.43 7.8 0 7.2-6.15 9.95L60.5 0Z"
                                        opacity="1" fill="#2d3cd7" class="undefined-text-0"
                                        data-fill-palette-color="quaternary" id="text-0" />
                                </svg>
                            </svg>
                        </svg>
                    </g>
                </svg>
            </svg>
        </svg>
    </svg>
</svg>